<?xml version="1.0" encoding="utf-8"?>
<!-- Svg Vector Icons : http://www.onlinewebfonts.com/icon -->
<!DOCTYPE svg PUBLIC "-//W3C//DTD SVG 1.1//EN" "http://www.w3.org/Graphics/SVG/1.1/DTD/svg11.dtd">
<svg version="1.1" xmlns="http://www.w3.org/2000/svg" xmlns:xlink="http://www.w3.org/1999/xlink" x="0px" y="0px" viewBox="0 0 1000 1000" enable-background="new 0 0 1000 1000" xml:space="preserve">
<metadata> Svg Vector Icons : http://www.onlinewebfonts.com/icon </metadata>
<g><path d="M500,241.4c-142.6,0-258.6,116-258.6,258.6c0,142.6,116,258.7,258.6,258.7c142.6,0,258.5-116.1,258.5-258.7C758.5,357.4,642.6,241.4,500,241.4z M500,701.8c-111.2,0-201.7-90.5-201.7-201.8S388.8,298.3,500,298.3c111.3,0,201.8,90.5,201.8,201.7S611.3,701.8,500,701.8z"/><path d="M500,204c15.7,0,28.4-12.7,28.4-28.4V38.4c0-15.7-12.7-28.4-28.4-28.4s-28.4,12.7-28.4,28.4v137.1C471.6,191.2,484.3,204,500,204z"/><path d="M500,796.1c-15.7,0-28.4,12.7-28.4,28.3v137.1c0,15.7,12.7,28.4,28.4,28.4s28.4-12.7,28.4-28.3V824.5C528.4,808.8,515.7,796.1,500,796.1z"/><path d="M250.5,290.7c5.5,5.5,12.8,8.3,20.1,8.3s14.6-2.8,20.1-8.3c11.1-11.1,11.1-29.1,0-40.2l-97-97c-11.1-11.1-29.1-11.1-40.2,0c-11.1,11.1-11.1,29.1,0,40.2L250.5,290.7z"/><path d="M749.5,709.4c-11.1-11.1-29.1-11.1-40.2,0c-11.1,11.1-11.1,29,0,40.1l96.9,97c5.6,5.5,12.9,8.3,20.1,8.3c7.3,0,14.6-2.7,20.1-8.3c11.1-11.1,11.1-29,0-40.1L749.5,709.4z"/><path d="M204,500c0-15.7-12.7-28.4-28.4-28.4H38.4C22.7,471.6,10,484.3,10,500s12.7,28.4,28.4,28.4h137.1C191.2,528.4,204,515.8,204,500z"/><path d="M961.6,471.6H824.4c-15.7,0-28.4,12.7-28.4,28.4c0,15.7,12.8,28.4,28.4,28.4h137.1c15.7-0.1,28.4-12.7,28.4-28.5C990,484.2,977.3,471.6,961.6,471.6z"/><path d="M250.5,709.4l-97,97c-11.1,11.1-11.1,29,0,40.1c5.5,5.5,12.8,8.3,20.1,8.3c7.3,0,14.6-2.7,20.1-8.3l97-97c11.1-11.1,11.1-29,0-40.1C279.5,698.2,261.6,698.2,250.5,709.4z"/><path d="M729.4,299c7.3,0,14.6-2.8,20.1-8.3l97-97c11.1-11.1,11.1-29,0-40.2c-11.1-11.1-29.1-11.1-40.2,0l-96.9,96.9c-11.1,11.1-11.1,29.1,0,40.2C714.9,296.2,722.2,299,729.4,299z"/></g>
</svg>